<svg width="36" height="37" viewBox="0 0 36 37" fill="none" xmlns="http://www.w3.org/2000/svg">
<path fill-rule="evenodd" clip-rule="evenodd" d="M18.0934 0.758423C13.871 0.760665 9.78703 2.29145 6.57178 5.07705C3.35654 7.86266 1.21966 11.7214 0.543257 15.9634C-0.133152 20.2054 0.695006 24.5539 2.87966 28.2314C5.06432 31.909 8.46301 34.6757 12.468 36.0369C13.3516 36.2048 13.6844 35.6442 13.6844 35.1676C13.6844 34.691 13.6667 33.3091 13.6608 31.7983C8.71284 32.8924 7.66729 29.6611 7.66729 29.6611C6.8603 27.5628 5.69399 27.0112 5.69399 27.0112C4.08 25.8901 5.81475 25.9111 5.81475 25.9111C7.6025 26.04 8.54203 27.7786 8.54203 27.7786C10.1266 30.5453 12.7036 29.745 13.7168 29.2774C13.8758 28.1053 14.3382 27.308 14.8478 26.8553C10.8953 26.3997 6.74249 24.847 6.74249 17.9106C6.71799 16.1116 7.37388 14.372 8.57443 13.0515C8.39182 12.5959 7.78215 10.7553 8.74819 8.25537C8.74819 8.25537 10.2414 7.76976 13.6402 10.1109C16.5555 9.29946 19.6313 9.29946 22.5466 10.1109C25.9424 7.76976 27.4327 8.25537 27.4327 8.25537C28.4017 10.7493 27.792 12.5899 27.6094 13.0515C28.8138 14.3722 29.471 16.1149 29.4443 17.9166C29.4443 24.8679 25.2827 26.3997 21.3243 26.8463C21.9605 27.4099 22.5289 28.51 22.5289 30.2006C22.5289 32.6227 22.5083 34.5711 22.5083 35.1676C22.5083 35.6502 22.8293 36.2138 23.7306 36.0369C27.736 34.6755 31.135 31.9083 33.3197 28.2301C35.5043 24.552 36.332 20.2028 35.6548 15.9604C34.9777 11.7181 32.8397 7.85927 29.6234 5.07414C26.4071 2.28902 22.3222 0.759244 18.0993 0.758423H18.0934Z" fill="#191717"/>
<path d="M7.04283 26.7514C7.00454 26.8417 6.86317 26.8688 6.7483 26.8056C6.63344 26.7424 6.54804 26.6251 6.58927 26.5319C6.6305 26.4386 6.76893 26.4146 6.88379 26.4777C6.99865 26.5409 7.087 26.6612 7.04283 26.7514Z" fill="#191717"/>
<path d="M7.76417 27.5705C7.70317 27.6018 7.63339 27.6106 7.56677 27.5952C7.50015 27.5799 7.44083 27.5413 7.39896 27.4862C7.2841 27.3599 7.26052 27.1854 7.34888 27.1072C7.43724 27.029 7.59629 27.0651 7.71116 27.1914C7.82602 27.3178 7.85253 27.4922 7.76417 27.5705Z" fill="#191717"/>
<path d="M8.46547 28.61C8.3565 28.6881 8.17094 28.61 8.06785 28.4539C8.03935 28.4259 8.01669 28.3923 8.0012 28.3551C7.98571 28.318 7.97772 28.2781 7.97772 28.2377C7.97772 28.1973 7.98571 28.1574 8.0012 28.1202C8.01669 28.0831 8.03935 28.0495 8.06785 28.0215C8.17683 27.9464 8.36239 28.0215 8.46547 28.1746C8.56855 28.3278 8.5715 28.532 8.46547 28.61Z" fill="#191717"/>
<path d="M9.41665 29.6172C9.31945 29.7283 9.12213 29.6982 8.96014 29.5481C8.79815 29.398 8.75985 29.1938 8.85705 29.0857C8.95424 28.9776 9.15157 29.0076 9.31945 29.1547C9.48733 29.3019 9.51973 29.5091 9.41665 29.6172Z" fill="#191717"/>
<path d="M10.7507 30.2051C10.7065 30.3464 10.5063 30.4096 10.306 30.3494C10.1057 30.2893 9.97318 30.1208 10.0115 29.9765C10.0498 29.8321 10.253 29.7659 10.4562 29.8321C10.6594 29.8982 10.789 30.0577 10.7507 30.2051Z" fill="#191717"/>
<path d="M12.2057 30.3065C12.2057 30.4539 12.0408 30.5802 11.8287 30.5832C11.6166 30.5862 11.4429 30.4659 11.4429 30.3185C11.4429 30.1711 11.6078 30.0448 11.8199 30.0418C12.0319 30.0388 12.2057 30.1561 12.2057 30.3065Z" fill="#191717"/>
<path d="M13.5605 30.0755C13.587 30.2228 13.4398 30.3763 13.2277 30.4124C13.0156 30.4484 12.8301 30.3612 12.8036 30.2168C12.7771 30.0724 12.9302 29.916 13.1364 29.8769C13.3426 29.8378 13.534 29.9281 13.5605 30.0755Z" fill="#191717"/>
</svg>
