<svg width="36" height="37" viewBox="0 0 36 37" fill="none" xmlns="http://www.w3.org/2000/svg">
<path d="M18.0426 3.27849C22.7948 3.27849 23.3576 3.29982 25.2265 3.38516C26.9635 3.46339 27.9014 3.76208 28.5267 4.01099C29.3535 4.33813 29.951 4.73638 30.5694 5.36932C31.1946 6.00938 31.5768 6.61387 31.8964 7.46016C32.1395 8.10021 32.4314 9.0674 32.5078 10.8382C32.5911 12.7584 32.612 13.3344 32.612 18.1917C32.612 23.0561 32.5911 23.6321 32.5078 25.5452C32.4314 27.3231 32.1395 28.2832 31.8964 28.9232C31.5768 29.7695 31.1877 30.3811 30.5694 31.0141C29.9441 31.6541 29.3535 32.0453 28.5267 32.3724C27.9014 32.6213 26.9565 32.92 25.2265 32.9982C23.3506 33.0836 22.7879 33.1049 18.0426 33.1049C13.2903 33.1049 12.7275 33.0836 10.8586 32.9982C9.12167 32.92 8.18372 32.6213 7.55843 32.3724C6.73164 32.0453 6.13414 31.647 5.51579 31.0141C4.89049 30.374 4.50837 29.7695 4.18877 28.9232C3.9456 28.2832 3.65379 27.316 3.57737 25.5452C3.494 23.625 3.47315 23.049 3.47315 18.1917C3.47315 13.3273 3.494 12.7513 3.57737 10.8382C3.65379 9.06029 3.9456 8.10021 4.18877 7.46016C4.50837 6.61387 4.89744 6.00226 5.51579 5.36932C6.14109 4.72927 6.73164 4.33813 7.55843 4.01099C8.18372 3.76208 9.12862 3.46339 10.8586 3.38516C12.7275 3.29982 13.2903 3.27849 18.0426 3.27849ZM18.0426 0C13.2139 0 12.6094 0.0213351 10.7127 0.106675C8.82292 0.192016 7.52369 0.50493 6.39815 0.952966C5.22398 1.42234 4.23046 2.04105 3.24388 3.05803C2.25035 4.06789 1.6459 5.08486 1.18735 6.27962C0.749637 7.43883 0.443937 8.7616 0.360564 10.696C0.277191 12.6446 0.256348 13.2633 0.256348 18.2059C0.256348 23.1485 0.277191 23.7673 0.360564 25.7088C0.443937 27.6431 0.749637 28.973 1.18735 30.1251C1.6459 31.327 2.25035 32.344 3.24388 33.3538C4.23046 34.3637 5.22398 34.9895 6.39121 35.4518C7.52369 35.8998 8.81597 36.2127 10.7058 36.2981C12.6025 36.3834 13.2069 36.4047 18.0356 36.4047C22.8643 36.4047 23.4688 36.3834 25.3655 36.2981C27.2553 36.2127 28.5545 35.8998 29.68 35.4518C30.8473 34.9895 31.8408 34.3637 32.8274 33.3538C33.8139 32.344 34.4254 31.327 34.877 30.1322C35.3147 28.973 35.6204 27.6502 35.7037 25.7159C35.7871 23.7744 35.808 23.1557 35.808 18.213C35.808 13.2704 35.7871 12.6517 35.7037 10.7102C35.6204 8.77582 35.3147 7.44594 34.877 6.29384C34.4392 5.08486 33.8348 4.06789 32.8413 3.05803C31.8547 2.04817 30.8612 1.42234 29.6939 0.960078C28.5615 0.512042 27.2692 0.199127 25.3794 0.113787C23.4757 0.0213351 22.8713 0 18.0426 0Z" fill="#000100"/>
<path d="M18.0426 8.85403C12.9985 8.85403 8.90631 13.0428 8.90631 18.2059C8.90631 23.369 12.9985 27.5578 18.0426 27.5578C23.0867 27.5578 27.1789 23.369 27.1789 18.2059C27.1789 13.0428 23.0867 8.85403 18.0426 8.85403ZM18.0426 24.2722C14.7702 24.2722 12.1162 21.5555 12.1162 18.2059C12.1162 14.8563 14.7702 12.1396 18.0426 12.1396C21.315 12.1396 23.969 14.8563 23.969 18.2059C23.969 21.5555 21.315 24.2722 18.0426 24.2722Z" fill="#000100"/>
<path d="M29.6731 8.48432C29.6731 9.69331 28.7143 10.6676 27.5401 10.6676C26.359 10.6676 25.4072 9.6862 25.4072 8.48432C25.4072 7.27533 26.366 6.30103 27.5401 6.30103C28.7143 6.30103 29.6731 7.28244 29.6731 8.48432Z" fill="#000100"/>
</svg>
