<svg width="36" height="26" viewBox="0 0 36 26" fill="none" xmlns="http://www.w3.org/2000/svg">
<path d="M35.2564 4.31518C35.0553 3.54054 34.6589 2.83355 34.107 2.26497C33.5551 1.69639 32.8669 1.28617 32.1115 1.07535C29.3303 0.309876 18.214 0.309875 18.214 0.309875C18.214 0.309875 7.09757 0.309876 4.31645 1.07535C3.56097 1.28617 2.87283 1.69639 2.32091 2.26497C1.76899 2.83355 1.37264 3.54054 1.17152 4.31518C0.427734 7.17434 0.427734 13.1368 0.427734 13.1368C0.427734 13.1368 0.427734 19.0992 1.17152 21.9584C1.37264 22.733 1.76899 23.44 2.32091 24.0086C2.87283 24.5772 3.56097 24.9874 4.31645 25.1982C7.09757 25.9637 18.214 25.9637 18.214 25.9637C18.214 25.9637 29.3303 25.9637 32.1115 25.1982C32.8669 24.9874 33.5551 24.5772 34.107 24.0086C34.6589 23.44 35.0553 22.733 35.2564 21.9584C36.0002 19.0992 36.0002 13.1368 36.0002 13.1368C36.0002 13.1368 36.0002 7.17434 35.2564 4.31518Z" fill="#FF0302"/>
<path d="M14.5758 18.5511V7.72269L23.8731 13.1369L14.5758 18.5511Z" fill="#FEFEFE"/>
</svg>
