<svg width="79" height="49" viewBox="0 0 79 49" fill="none" xmlns="http://www.w3.org/2000/svg">
<path d="M2.52 38V12.08H10.908C11.112 12.08 11.532 12.086 12.168 12.098C12.804 12.11 13.416 12.152 14.004 12.224C16.092 12.476 17.862 13.202 19.314 14.402C20.766 15.602 21.87 17.126 22.626 18.974C23.382 20.822 23.76 22.844 23.76 25.04C23.76 27.236 23.382 29.258 22.626 31.106C21.87 32.954 20.766 34.478 19.314 35.678C17.862 36.878 16.092 37.604 14.004 37.856C13.416 37.928 12.804 37.97 12.168 37.982C11.532 37.994 11.112 38 10.908 38H2.52ZM7.488 33.392H10.908C11.232 33.392 11.67 33.386 12.222 33.374C12.774 33.35 13.272 33.296 13.716 33.212C14.844 32.984 15.762 32.456 16.47 31.628C17.19 30.8 17.718 29.804 18.054 28.64C18.402 27.476 18.576 26.276 18.576 25.04C18.576 23.744 18.396 22.514 18.036 21.35C17.688 20.186 17.154 19.202 16.434 18.398C15.714 17.594 14.808 17.084 13.716 16.868C13.272 16.772 12.774 16.718 12.222 16.706C11.67 16.694 11.232 16.688 10.908 16.688H7.488V33.392ZM28.0786 38V12.08H33.0466L44.3146 29.36V12.08H49.2826V38H44.3146L33.0466 20.72V38H28.0786ZM65.4292 38.54C62.8372 38.54 60.5992 37.976 58.7152 36.848C56.8432 35.72 55.3972 34.142 54.3772 32.114C53.3692 30.086 52.8652 27.728 52.8652 25.04C52.8652 22.352 53.3692 19.994 54.3772 17.966C55.3972 15.938 56.8432 14.36 58.7152 13.232C60.5992 12.104 62.8372 11.54 65.4292 11.54C68.4052 11.54 70.9012 12.278 72.9172 13.754C74.9452 15.23 76.3732 17.228 77.2012 19.748L72.2692 21.116C71.7892 19.544 70.9792 18.326 69.8392 17.462C68.6992 16.586 67.2292 16.148 65.4292 16.148C63.7852 16.148 62.4112 16.514 61.3072 17.246C60.2152 17.978 59.3932 19.01 58.8412 20.342C58.2892 21.674 58.0132 23.24 58.0132 25.04C58.0132 26.84 58.2892 28.406 58.8412 29.738C59.3932 31.07 60.2152 32.102 61.3072 32.834C62.4112 33.566 63.7852 33.932 65.4292 33.932C67.2292 33.932 68.6992 33.494 69.8392 32.618C70.9792 31.742 71.7892 30.524 72.2692 28.964L77.2012 30.332C76.3732 32.852 74.9452 34.85 72.9172 36.326C70.9012 37.802 68.4052 38.54 65.4292 38.54Z" fill="black"/>
</svg>
