<svg width="36" height="37" viewBox="0 0 36 37" fill="none" xmlns="http://www.w3.org/2000/svg">
<path d="M18.1569 35.8429C27.6729 35.8429 35.3873 27.9465 35.3873 18.2059C35.3873 8.46526 27.6729 0.568909 18.1569 0.568909C8.64077 0.568909 0.926453 8.46526 0.926453 18.2059C0.926453 27.9465 8.64077 35.8429 18.1569 35.8429Z" fill="#EA4C89"/>
<path fill-rule="evenodd" clip-rule="evenodd" d="M18.1568 0C8.33776 0 0.370605 8.15515 0.370605 18.2059C0.370605 28.2567 8.33776 36.4118 18.1568 36.4118C27.9566 36.4118 35.9431 28.2567 35.9431 18.2059C35.9431 8.15515 27.9566 0 18.1568 0ZM29.905 8.3921C32.027 11.0381 33.3002 14.4147 33.3388 18.0677C32.8372 17.969 27.8215 16.9224 22.7673 17.5741C22.6516 17.3174 22.5551 17.0409 22.4394 16.7645C22.1307 16.0142 21.7836 15.244 21.4363 14.5134C27.0306 12.1834 29.577 8.82652 29.905 8.3921ZM18.1568 2.68548C22.015 2.68548 25.5452 4.16644 28.2267 6.59521C27.9566 6.99013 25.6609 10.1298 20.2595 12.2031C17.771 7.52327 15.0124 3.69252 14.588 3.10014C15.7261 2.82369 16.9222 2.68548 18.1568 2.68548ZM11.6944 4.14668C12.0995 4.69957 14.8002 8.55007 17.3273 13.1311C10.2283 15.0663 3.95872 15.0268 3.28353 15.0268C4.26737 10.2087 7.45037 6.20028 11.6944 4.14668ZM2.95559 18.2257C2.95559 18.0677 2.95559 17.9097 2.95559 17.7518C3.61148 17.7715 10.9806 17.8702 18.5619 15.5402C19.0057 16.409 19.4108 17.2976 19.7966 18.1861C19.6036 18.2454 19.3914 18.3047 19.1985 18.3639C11.3664 20.9506 7.19959 28.0197 6.85235 28.6121C4.44098 25.8674 2.95559 22.2144 2.95559 18.2257ZM18.1568 33.7658C14.6458 33.7658 11.405 32.5416 8.83932 30.488C9.10939 29.9154 12.1959 23.8336 20.7611 20.773C20.7996 20.7532 20.819 20.7532 20.8576 20.7335C22.9988 26.4005 23.867 31.1593 24.0984 32.5218C22.2658 33.3314 20.2595 33.7658 18.1568 33.7658ZM26.6255 31.1002C26.4712 30.1523 25.6609 25.6107 23.674 20.0225C28.4389 19.2524 32.6057 20.5163 33.1266 20.694C32.4707 25.0183 30.04 28.7503 26.6255 31.1002Z" fill="#C32361"/>
</svg>
