<svg width="24" height="37" viewBox="0 0 24 37" fill="none" xmlns="http://www.w3.org/2000/svg">
<path d="M5.92883 36.4119C9.20152 36.4119 11.8577 33.6931 11.8577 30.3432V24.2745H5.92883C2.65614 24.2745 0 26.9933 0 30.3432C0 33.6931 2.65614 36.4119 5.92883 36.4119Z" fill="#0ACF83"/>
<path d="M0 18.206C0 14.8561 2.65614 12.1373 5.92883 12.1373H11.8577V24.2745H5.92883C2.65614 24.2746 0 21.5558 0 18.206Z" fill="#A259FF"/>
<path d="M0 6.06869C0 2.7188 2.65614 0 5.92883 0H11.8577V12.1372H5.92883C2.65614 12.1372 0 9.41858 0 6.06869Z" fill="#F24E1E"/>
<path d="M11.8574 0H17.7863C21.0589 0 23.7151 2.7188 23.7151 6.06869C23.7151 9.41858 21.0589 12.1372 17.7863 12.1372H11.8574V0Z" fill="#FF7262"/>
<path d="M23.7151 18.206C23.7151 21.5559 21.0589 24.2747 17.7863 24.2747C14.5136 24.2747 11.8574 21.5559 11.8574 18.206C11.8574 14.8561 14.5136 12.1373 17.7863 12.1373C21.0589 12.1373 23.7151 14.8561 23.7151 18.206Z" fill="#1ABCFE"/>
</svg>
