<svg width="36" height="37" viewBox="0 0 36 37" fill="none" xmlns="http://www.w3.org/2000/svg">
<path d="M33.1462 0H2.82565C2.1292 0 1.46129 0.283189 0.968827 0.787269C0.476368 1.29135 0.199707 1.97503 0.199707 2.6879V33.7239C0.199707 34.4368 0.476368 35.1205 0.968827 35.6246C1.46129 36.1287 2.1292 36.4118 2.82565 36.4118H33.1462C33.8427 36.4118 34.5106 36.1287 35.003 35.6246C35.4955 35.1205 35.7722 34.4368 35.7722 33.7239V2.6879C35.7722 1.97503 35.4955 1.29135 35.003 0.787269C34.5106 0.283189 33.8427 0 33.1462 0ZM10.8023 31.0183H5.45405V13.6292H10.8023V31.0183ZM8.12446 11.2194C7.5178 11.2159 6.92574 11.0285 6.42301 10.6809C5.92028 10.3333 5.52941 9.84111 5.29972 9.26634C5.07004 8.69158 5.01184 8.06005 5.13247 7.45146C5.25309 6.84287 5.54714 6.2845 5.9775 5.8468C6.40785 5.40911 6.95523 5.11172 7.55056 4.99216C8.14588 4.87259 8.76246 4.93622 9.32249 5.17501C9.88251 5.4138 10.3609 5.81705 10.6972 6.33386C11.0336 6.85067 11.2128 7.45789 11.2123 8.07888C11.2181 8.49463 11.142 8.90731 10.9886 9.29231C10.8351 9.67731 10.6076 10.0268 10.3194 10.3198C10.0313 10.6129 9.68843 10.8436 9.31133 10.9981C8.93422 11.1527 8.53058 11.2279 8.12446 11.2194ZM30.5153 31.0335H25.1696V21.5336C25.1696 18.7319 24.0061 17.8671 22.5041 17.8671C20.9182 17.8671 19.3619 19.0909 19.3619 21.6044V31.0335H14.0137V13.6418H19.1569V16.0516H19.226C19.7423 14.982 21.5506 13.1538 24.3099 13.1538C27.2941 13.1538 30.5178 14.9668 30.5178 20.2768L30.5153 31.0335Z" fill="#0A66C2"/>
</svg>
